{
  "accessors": [
    {
      "bufferView": 2,
      "componentType": 5126,
      "count": 1350,
      "max": [
        2.3879029750823975,
        2.2564942836761475,
        2.3879029750823975
      ],
      "min": [
        -2.3879029750823975,
        0.011718332767486572,
        -2.3879029750823975
      ],
      "type": "VEC3"
    },
    {
      "bufferView": 2,
      "byteOffset": 16200,
      "componentType": 5126,
      "count": 1350,
      "max": [
        1,
        1,
        1
      ],
      "min": [
        -1,
        -1,
        -1
      ],
      "type": "VEC3"
    },
    {
      "bufferView": 3,
      "componentType": 5126,
      "count": 1350,
      "max": [
        1,
        1,
        1,
        1
      ],
      "min": [
        -1,
        -1,
        -1,
        1
      ],
      "type": "VEC4"
    },
    {
      "bufferView": 1,
      "componentType": 5126,
      "count": 1350,
      "max": [
        0.99000000953674316,
        0.99000000953674316
      ],
      "min": [
        0,
        0
      ],
      "type": "VEC2"
    },
    {
      "bufferView": 1,
      "byteOffset": 10800,
      "componentType": 5126,
      "count": 1350,
      "max": [
        0.99000000953674316,
        0.99000000953674316
      ],
      "min": [
        0,
        0
      ],
      "type": "VEC2"
    },
    {
      "bufferView": 1,
      "byteOffset": 21600,
      "componentType": 5126,
      "count": 1350,
      "max": [
        0.99000000953674316,
        0.99000000953674316
      ],
      "min": [
        0,
        0
      ],
      "type": "VEC2"
    },
    {
      "bufferView": 1,
      "byteOffset": 32400,
      "componentType": 5126,
      "count": 1350,
      "max": [
        0.99811714887619019,
        0.99727272987365723
      ],
      "min": [
        0.00390625,
        0.00390625
      ],
      "type": "VEC2"
    },
    {
      "bufferView": 1,
      "byteOffset": 43200,
      "componentType": 5126,
      "count": 1350,
      "max": [
        0.99000000953674316,
        0.99000000953674316
      ],
      "min": [
        0,
        0
      ],
      "type": "VEC2"
    },
    {
      "bufferView": 0,
      "componentType": 5125,
      "count": 2244,
      "max": [
        1349
      ],
      "min": [
        0
      ],
      "type": "SCALAR"
    },
    {
      "bufferView": 2,
      "byteOffset": 32400,
      "componentType": 5126,
      "count": 1769,
      "max": [
        2.3879029750823975,
        2.2564942836761475,
        2.3879029750823975
      ],
      "min": [
        -2.3879029750823975,
        0.011718332767486572,
        -2.3879029750823975
      ],
      "type": "VEC3"
    },
    {
      "bufferView": 2,
      "byteOffset": 53628,
      "componentType": 5126,
      "count": 1769,
      "max": [
        1,
        1,
        1
      ],
      "min": [
        -1,
        -1,
        -1
      ],
      "type": "VEC3"
    },
    {
      "bufferView": 3,
      "byteOffset": 21600,
      "componentType": 5126,
      "count": 1769,
      "max": [
        1,
        1,
        1,
        1
      ],
      "min": [
        -1,
        -1,
        -1,
        1
      ],
      "type": "VEC4"
    },
    {
      "bufferView": 1,
      "byteOffset": 54000,
      "componentType": 5126,
      "count": 1769,
      "max": [
        0.99990004301071167,
        0.99957990646362305
      ],
      "min": [
        0,
        0
      ],
      "type": "VEC2"
    },
    {
      "bufferView": 1,
      "byteOffset": 68152,
      "componentType": 5126,
      "count": 1769,
      "max": [
        0.99811714887619019,
        0.99793994426727295
      ],
      "min": [
        0.00390625,
        0.00390625
      ],
      "type": "VEC2"
    },
    {
      "bufferView": 0,
      "byteOffset": 8976,
      "componentType": 5125,
      "count": 96,
      "max": [
        1416
      ],
      "min": [
        1369
      ],
      "type": "SCALAR"
    },
    {
      "bufferView": 2,
      "byteOffset": 74856,
      "componentType": 5126,
      "count": 1769,
      "max": [
        2.3879029750823975,
        2.2564942836761475,
        2.3879029750823975
      ],
      "min": [
        -2.3879029750823975,
        0.011718332767486572,
        -2.3879029750823975
      ],
      "type": "VEC3"
    },
    {
      "bufferView": 2,
      "byteOffset": 96084,
      "componentType": 5126,
      "count": 1769,
      "max": [
        1,
        1,
        1
      ],
      "min": [
        -1,
        -1,
        -1
      ],
      "type": "VEC3"
    },
    {
      "bufferView": 3,
      "byteOffset": 49904,
      "componentType": 5126,
      "count": 1769,
      "max": [
        1,
        1,
        1,
        1
      ],
      "min": [
        -1,
        -1,
        -1,
        1
      ],
      "type": "VEC4"
    },
    {
      "bufferView": 1,
      "byteOffset": 82304,
      "componentType": 5126,
      "count": 1769,
      "max": [
        0.99990004301071167,
        0.99957990646362305
      ],
      "min": [
        0,
        0
      ],
      "type": "VEC2"
    },
    {
      "bufferView": 1,
      "byteOffset": 96456,
      "componentType": 5126,
      "count": 1769,
      "max": [
        0.99811714887619019,
        0.99793994426727295
      ],
      "min": [
        0.00390625,
        0.00390625
      ],
      "type": "VEC2"
    },
    {
      "bufferView": 0,
      "byteOffset": 9360,
      "componentType": 5125,
      "count": 168,
      "max": [
        1512
      ],
      "min": [
        1417
      ],
      "type": "SCALAR"
    },
    {
      "bufferView": 2,
      "byteOffset": 117312,
      "componentType": 5126,
      "count": 1769,
      "max": [
        2.3879029750823975,
        2.2564942836761475,
        2.3879029750823975
      ],
      "min": [
        -2.3879029750823975,
        0.011718332767486572,
        -2.3879029750823975
      ],
      "type": "VEC3"
    },
    {
      "bufferView": 2,
      "byteOffset": 138540,
      "componentType": 5126,
      "count": 1769,
      "max": [
        1,
        1,
        1
      ],
      "min": [
        -1,
        -1,
        -1
      ],
      "type": "VEC3"
    },
    {
      "bufferView": 3,
      "byteOffset": 78208,
      "componentType": 5126,
      "count": 1769,
      "max": [
        1,
        1,
        1,
        1
      ],
      "min": [
        -1,
        -1,
        -1,
        1
      ],
      "type": "VEC4"
    },
    {
      "bufferView": 1,
      "byteOffset": 110608,
      "componentType": 5126,
      "count": 1769,
      "max": [
        0.99990004301071167,
        0.99957990646362305
      ],
      "min": [
        0,
        0
      ],
      "type": "VEC2"
    },
    {
      "bufferView": 1,
      "byteOffset": 124760,
      "componentType": 5126,
      "count": 1769,
      "max": [
        0.99811714887619019,
        0.99793994426727295
      ],
      "min": [
        0.00390625,
        0.00390625
      ],
      "type": "VEC2"
    },
    {
      "bufferView": 0,
      "byteOffset": 10032,
      "componentType": 5125,
      "count": 528,
      "max": [
        1768
      ],
      "min": [
        1513
      ],
      "type": "SCALAR"
    }
  ],
  "asset": {
    "extras": {
      "author": "rdixon22 (https://sketchfab.com/rdixon22)",
      "license": "CC-BY-4.0 (http://creativecommons.org/licenses/by/4.0/)",
      "source": "https://sketchfab.com/models/a47313435bbe4dbe8f264dbbc2481952",
      "title": "projector"
    },
    "generator": "Sketchfab-4.23.2",
    "version": "2.0"
  },
  "bufferViews": [
    {
      "buffer": 0,
      "byteLength": 12144,
      "byteOffset": 0,
      "name": "floatBufferViews",
      "target": 34963
    },
    {
      "buffer": 0,
      "byteLength": 138912,
      "byteOffset": 12144,
      "byteStride": 8,
      "name": "floatBufferViews",
      "target": 34962
    },
    {
      "buffer": 0,
      "byteLength": 159768,
      "byteOffset": 151056,
      "byteStride": 12,
      "name": "floatBufferViews",
      "target": 34962
    },
    {
      "buffer": 0,
      "byteLength": 106512,
      "byteOffset": 310824,
      "byteStride": 16,
      "name": "floatBufferViews",
      "target": 34962
    }
  ],
  "buffers": [
    {
      "byteLength": 417336,
      "uri": "scene.bin"
    }
  ],
  "images": [
    {
      "uri": "textures/projector_warning_baseColor.png"
    },
    {
      "uri": "textures/base_color_baseColor.jpeg"
    },
    {
      "uri": "textures/base_color_normal.png"
    },
    {
      "uri": "textures/base_color_metallicRoughness.png"
    }
  ],
  "materials": [
    {
      "doubleSided": false,
      "emissiveFactor": [
        0,
        0,
        0
      ],
      "name": "base_color",
      "normalTexture": {
        "index": 2,
        "scale": 0,
        "texCoord": 2
      },
      "pbrMetallicRoughness": {
        "baseColorFactor": [
          0.764706,
          0.764706,
          0.764706,
          1
        ],
        "baseColorTexture": {
          "index": 1,
          "texCoord": 0
        },
        "metallicFactor": 0,
        "metallicRoughnessTexture": {
          "index": 3,
          "texCoord": 1
        },
        "roughnessFactor": 0
      }
    },
    {
      "doubleSided": false,
      "emissiveFactor": [
        0,
        0,
        0
      ],
      "name": "projector_warning",
      "pbrMetallicRoughness": {
        "baseColorFactor": [
          0.80000000000000004,
          0.80000000000000004,
          0.80000000000000004,
          1
        ],
        "baseColorTexture": {
          "index": 0,
          "texCoord": 0
        },
        "metallicFactor": 0,
        "roughnessFactor": 0.5
      }
    },
    {
      "doubleSided": false,
      "emissiveFactor": [
        0.036764699999999997,
        0.92028399999999999,
        1
      ],
      "name": "blue_emission",
      "pbrMetallicRoughness": {
        "baseColorFactor": [
          0.80000000000000004,
          0.80000000000000004,
          0.80000000000000004,
          1
        ],
        "metallicFactor": 0,
        "roughnessFactor": 0.5
      }
    },
    {
      "doubleSided": false,
      "emissiveFactor": [
        0.96323499999999995,
        0.96323499999999995,
        0.96323499999999995
      ],
      "name": "white_emision",
      "pbrMetallicRoughness": {
        "baseColorFactor": [
          0.80000000000000004,
          0.80000000000000004,
          0.80000000000000004,
          1
        ],
        "metallicFactor": 1,
        "roughnessFactor": 0
      }
    }
  ],
  "meshes": [
    {
      "primitives": [
        {
          "attributes": {
            "NORMAL": 1,
            "POSITION": 0,
            "TANGENT": 2,
            "TEXCOORD_0": 3,
            "TEXCOORD_1": 4,
            "TEXCOORD_2": 5,
            "TEXCOORD_3": 6,
            "TEXCOORD_4": 7
          },
          "indices": 8,
          "material": 0,
          "mode": 4
        }
      ]
    },
    {
      "primitives": [
        {
          "attributes": {
            "NORMAL": 10,
            "POSITION": 9,
            "TANGENT": 11,
            "TEXCOORD_0": 12,
            "TEXCOORD_1": 13
          },
          "indices": 14,
          "material": 1,
          "mode": 4
        }
      ]
    },
    {
      "primitives": [
        {
          "attributes": {
            "NORMAL": 16,
            "POSITION": 15,
            "TANGENT": 17,
            "TEXCOORD_0": 18,
            "TEXCOORD_1": 19
          },
          "indices": 20,
          "material": 2,
          "mode": 4
        }
      ]
    },
    {
      "primitives": [
        {
          "attributes": {
            "NORMAL": 22,
            "POSITION": 21,
            "TANGENT": 23,
            "TEXCOORD_0": 24,
            "TEXCOORD_1": 25
          },
          "indices": 26,
          "material": 3,
          "mode": 4
        }
      ]
    }
  ],
  "nodes": [
    {
      "children": [
        1
      ],
      "name": "RootNode (gltf orientation matrix)",
      "rotation": [
        -0.70710678118654746,
        -0,
        -0,
        0.70710678118654757
      ]
    },
    {
      "children": [
        2
      ],
      "name": "RootNode (model correction matrix)"
    },
    {
      "children": [
        3
      ],
      "name": "root"
    },
    {
      "children": [
        4
      ],
      "matrix": [
        1,
        0,
        0,
        0,
        0,
        2.2204460492503131e-16,
        1,
        0,
        0,
        -1,
        2.2204460492503131e-16,
        0,
        0,
        0,
        0,
        1
      ],
      "name": "GLTF_SceneRootNode"
    },
    {
      "children": [
        5,
        6,
        7,
        8
      ],
      "matrix": [
        0.64800000190734863,
        0,
        0,
        0,
        0,
        0.64800000190734863,
        0,
        0,
        0,
        0,
        0.64800000190734863,
        0,
        12.170073509216309,
        0.18174535036087036,
        0.082243472337722778,
        1
      ],
      "name": "projector_LOD0_0"
    },
    {
      "mesh": 0,
      "name": ""
    },
    {
      "mesh": 1,
      "name": ""
    },
    {
      "mesh": 2,
      "name": ""
    },
    {
      "mesh": 3,
      "name": ""
    }
  ],
  "samplers": [
    {
      "magFilter": 9729,
      "minFilter": 9729,
      "wrapS": 10497,
      "wrapT": 10497
    },
    {
      "magFilter": 9729,
      "minFilter": 9987,
      "wrapS": 10497,
      "wrapT": 10497
    }
  ],
  "scene": 0,
  "scenes": [
    {
      "name": "OSG_Scene",
      "nodes": [
        0
      ]
    }
  ],
  "textures": [
    {
      "sampler": 0,
      "source": 0
    },
    {
      "sampler": 1,
      "source": 1
    },
    {
      "sampler": 0,
      "source": 2
    },
    {
      "sampler": 0,
      "source": 3
    }
  ]
}

