{
    "asset": {
        "generator": "FBX2glTF",
        "version": "2.0"
    },
    "scene": 0,
    "buffers": [
        {
            "byteLength": 56208,
            "uri": "data:application/octet-stream;base64,"
        }
    ],
    "bufferViews": [
        {
            "buffer": 0,
            "byteLength": 2736,
            "byteOffset": 0,
            "target": 34963
        },
        {
            "buffer": 0,
            "byteLength": 13368,
            "byteOffset": 2736,
            "target": 34962
        },
        {
            "buffer": 0,
            "byteLength": 13368,
            "byteOffset": 16104,
            "target": 34962
        },
        {
            "buffer": 0,
            "byteLength": 17824,
            "byteOffset": 29472,
            "target": 34962
        },
        {
            "buffer": 0,
            "byteLength": 8912,
            "byteOffset": 47296,
            "target": 34962
        }
    ],
    "scenes": [
        {
            "name": "Root Scene",
            "nodes": [
                0
            ]
        }
    ],
    "accessors": [
        {
            "componentType": 5123,
            "type": "SCALAR",
            "count": 1368,
            "bufferView": 0,
            "byteOffset": 0
        },
        {
            "componentType": 5126,
            "type": "VEC3",
            "count": 1114,
            "bufferView": 1,
            "byteOffset": 0,
            "min": [
                -1.41246092319489,
                0.0,
                -1.41711235046387
            ],
            "max": [
                1.41247069835663,
                7.27279758453369,
                1.4171142578125
            ]
        },
        {
            "componentType": 5126,
            "type": "VEC3",
            "count": 1114,
            "bufferView": 2,
            "byteOffset": 0
        },
        {
            "componentType": 5126,
            "type": "VEC4",
            "count": 1114,
            "bufferView": 3,
            "byteOffset": 0
        },
        {
            "componentType": 5126,
            "type": "VEC2",
            "count": 1114,
            "bufferView": 4,
            "byteOffset": 0
        }
    ],
    "images": [
        {
            "name": "PolyAdventureTexture_01.png",
            "uri": "PolyAdventureTexture_01.png"
        }
    ],
    "samplers": [
        {}
    ],
    "textures": [
        {
            "name": "DiffuseColor_Texture",
            "sampler": 0,
            "source": 0
        }
    ],
    "materials": [
        {
            "name": "PolyAdventureMaterial_01",
            "alphaMode": "OPAQUE",
            "extras": {
                "fromFBX": {
                    "shadingModel": "Lambert",
                    "isTruePBR": false
                }
            },
            "pbrMetallicRoughness": {
                "baseColorTexture": {
                    "index": 0,
                    "texCoord": 0
                },
                "baseColorFactor": [
                    1.0,
                    1.0,
                    1.0,
                    1.0
                ],
                "metallicFactor": 0.200000002980232,
                "roughnessFactor": 0.800000011920929
            }
        }
    ],
    "meshes": [
        {
            "name": "SM_Env_TreePine_01",
            "primitives": [
                {
                    "material": 0,
                    "mode": 4,
                    "attributes": {
                        "NORMAL": 2,
                        "POSITION": 1,
                        "TANGENT": 3,
                        "TEXCOORD_0": 4
                    },
                    "indices": 0
                }
            ]
        }
    ],
    "nodes": [
        {
            "name": "RootNode",
            "translation": [
                0.0,
                0.0,
                0.0
            ],
            "rotation": [
                0.0,
                0.0,
                0.0,
                1.0
            ],
            "scale": [
                1.0,
                1.0,
                1.0
            ],
            "children": [
                1
            ]
        },
        {
            "name": "SM_Env_TreePine_01",
            "translation": [
                0.0,
                0.0,
                0.0
            ],
            "rotation": [
                0.0,
                -0.707105994224548,
                0.0,
                0.707107603549957
            ],
            "scale": [
                1.0,
                1.0,
                1.0
            ],
            "mesh": 0
        }
    ]
}