{
  "accessors": [
    {
      "bufferView": 2,
      "componentType": 5126,
      "count": 1751,
      "max": [
        1.5622495412826538,
        1.5536395311355591,
        0.64349454641342163
      ],
      "min": [
        -1.6821403503417969,
        -0.0017832870362326503,
        -0.64763587713241577
      ],
      "type": "VEC3"
    },
    {
      "bufferView": 2,
      "byteOffset": 21012,
      "componentType": 5126,
      "count": 1751,
      "max": [
        1,
        1,
        1
      ],
      "min": [
        -1,
        -1,
        -1
      ],
      "type": "VEC3"
    },
    {
      "bufferView": 3,
      "componentType": 5126,
      "count": 1751,
      "max": [
        1,
        1,
        0.99999499320983887,
        1
      ],
      "min": [
        -1,
        -1,
        -1,
        1
      ],
      "type": "VEC4"
    },
    {
      "bufferView": 1,
      "componentType": 5126,
      "count": 1751,
      "max": [
        1,
        1
      ],
      "min": [
        0,
        0.50999999046325684
      ],
      "type": "VEC2"
    },
    {
      "bufferView": 1,
      "byteOffset": 14008,
      "componentType": 5126,
      "count": 1751,
      "max": [
        0.99733620882034302,
        0.99731314182281494
      ],
      "min": [
        0.00390625,
        0.00390625
      ],
      "type": "VEC2"
    },
    {
      "bufferView": 1,
      "byteOffset": 28016,
      "componentType": 5126,
      "count": 1751,
      "max": [
        1,
        1
      ],
      "min": [
        0,
        0.50999999046325684
      ],
      "type": "VEC2"
    },
    {
      "bufferView": 1,
      "byteOffset": 42024,
      "componentType": 5126,
      "count": 1751,
      "max": [
        1,
        1
      ],
      "min": [
        0,
        0.50999999046325684
      ],
      "type": "VEC2"
    },
    {
      "bufferView": 1,
      "byteOffset": 56032,
      "componentType": 5126,
      "count": 1751,
      "max": [
        1,
        1
      ],
      "min": [
        0,
        0.50999999046325684
      ],
      "type": "VEC2"
    },
    {
      "bufferView": 0,
      "componentType": 5125,
      "count": 5160,
      "max": [
        1750
      ],
      "min": [
        0
      ],
      "type": "SCALAR"
    }
  ],
  "asset": {
    "extras": {
      "author": "rdixon22 (https://sketchfab.com/rdixon22)",
      "license": "CC-BY-4.0 (http://creativecommons.org/licenses/by/4.0/)",
      "source": "https://sketchfab.com/models/9b192ed25cdb41748aaebf1871ecacbd",
      "title": "Sofa1"
    },
    "generator": "Sketchfab-4.23.2",
    "version": "2.0"
  },
  "bufferViews": [
    {
      "buffer": 0,
      "byteLength": 20640,
      "byteOffset": 0,
      "name": "floatBufferViews",
      "target": 34963
    },
    {
      "buffer": 0,
      "byteLength": 70040,
      "byteOffset": 20640,
      "byteStride": 8,
      "name": "floatBufferViews",
      "target": 34962
    },
    {
      "buffer": 0,
      "byteLength": 42024,
      "byteOffset": 90680,
      "byteStride": 12,
      "name": "floatBufferViews",
      "target": 34962
    },
    {
      "buffer": 0,
      "byteLength": 28016,
      "byteOffset": 132704,
      "byteStride": 16,
      "name": "floatBufferViews",
      "target": 34962
    }
  ],
  "buffers": [
    {
      "byteLength": 160720,
      "uri": "scene.bin"
    }
  ],
  "images": [
    {
      "uri": "textures/base_color_baseColor.jpeg"
    },
    {
      "uri": "textures/base_color_normal.png"
    },
    {
      "uri": "textures/base_color_metallicRoughness.png"
    }
  ],
  "materials": [
    {
      "doubleSided": false,
      "emissiveFactor": [
        0,
        0,
        0
      ],
      "name": "base_color",
      "normalTexture": {
        "index": 1,
        "scale": 0,
        "texCoord": 0
      },
      "pbrMetallicRoughness": {
        "baseColorFactor": [
          0.764706,
          0.764706,
          0.764706,
          1
        ],
        "baseColorTexture": {
          "index": 0,
          "texCoord": 0
        },
        "metallicFactor": 0,
        "metallicRoughnessTexture": {
          "index": 2,
          "texCoord": 0
        },
        "roughnessFactor": 0
      }
    }
  ],
  "meshes": [
    {
      "primitives": [
        {
          "attributes": {
            "NORMAL": 1,
            "POSITION": 0,
            "TANGENT": 2,
            "TEXCOORD_0": 3,
            "TEXCOORD_1": 4,
            "TEXCOORD_2": 5,
            "TEXCOORD_3": 6,
            "TEXCOORD_4": 7
          },
          "indices": 8,
          "material": 0,
          "mode": 4
        }
      ]
    }
  ],
  "nodes": [
    {
      "children": [
        1
      ],
      "name": "RootNode (gltf orientation matrix)",
      "rotation": [
        -0.70710678118654746,
        -0,
        -0,
        0.70710678118654757
      ]
    },
    {
      "children": [
        2
      ],
      "name": "RootNode (model correction matrix)"
    },
    {
      "children": [
        3
      ],
      "name": "root"
    },
    {
      "children": [
        4
      ],
      "matrix": [
        1,
        0,
        0,
        0,
        0,
        2.2204460492503131e-16,
        1,
        0,
        0,
        -1,
        2.2204460492503131e-16,
        0,
        0,
        0,
        0,
        1
      ],
      "name": "GLTF_SceneRootNode"
    },
    {
      "children": [
        5
      ],
      "matrix": [
        2.2759297625407626e-06,
        0,
        0.99999999999741018,
        0,
        0,
        1,
        0,
        0,
        -0.99999999999741018,
        0,
        2.2759297625407626e-06,
        0,
        -14.260383605957031,
        0.099999986588954926,
        -27.330001831054688,
        1
      ],
      "name": "Sofa_0"
    },
    {
      "children": [
        6
      ],
      "name": "decorative_sofa_LOD0_1"
    },
    {
      "mesh": 0,
      "name": ""
    }
  ],
  "samplers": [
    {
      "magFilter": 9729,
      "minFilter": 9987,
      "wrapS": 10497,
      "wrapT": 10497
    },
    {
      "magFilter": 9729,
      "minFilter": 9729,
      "wrapS": 10497,
      "wrapT": 10497
    }
  ],
  "scene": 0,
  "scenes": [
    {
      "name": "OSG_Scene",
      "nodes": [
        0
      ]
    }
  ],
  "textures": [
    {
      "sampler": 0,
      "source": 0
    },
    {
      "sampler": 1,
      "source": 1
    },
    {
      "sampler": 1,
      "source": 2
    }
  ]
}

