{"asset":{"version":"2.0","generator":"babylon.js glTF exporter for maya 2018 v1.2.28"},"scene":0,"scenes":[{"nodes":[0,1],"extensions":{}}],"nodes":[{"mesh":0,"translation":[0.0,0.4,0.0],"rotation":[0.0,0.0,0.0,1.0],"scale":[2.0,0.5,2.0],"name":"arrowBtn"},{"mesh":1,"translation":[0.0,0.0,0.0],"rotation":[0.0,0.0,0.0,1.0],"scale":[1.0,1.0,1.0],"name":"arrowBtn3"}],"meshes":[{"primitives":[{"attributes":{"POSITION":1,"NORMAL":2,"TANGENT":3,"TEXCOORD_0":4},"indices":0,"mode":4,"material":0}],"name":"arrowBtn"},{"primitives":[{"attributes":{"POSITION":6,"NORMAL":7,"TANGENT":8,"TEXCOORD_0":9},"indices":5,"mode":4,"material":1}],"name":"arrowBtn3"}],"accessors":[{"bufferView":0,"componentType":5123,"count":114,"type":"SCALAR","name":"accessorIndices"},{"bufferView":1,"componentType":5126,"count":70,"max":[0.5,0.50000006,0.5],"min":[-0.5,-0.5,-0.5],"type":"VEC3","name":"accessorPositions"},{"bufferView":1,"byteOffset":840,"componentType":5126,"count":70,"type":"VEC3","name":"accessorNormals"},{"bufferView":2,"componentType":5126,"count":70,"type":"VEC4","name":"accessorTangents"},{"bufferView":3,"componentType":5126,"count":70,"type":"VEC2","name":"accessorUVs"},{"bufferView":0,"byteOffset":228,"componentType":5123,"count":156,"type":"SCALAR","name":"accessorIndices"},{"bufferView":1,"byteOffset":1680,"componentType":5126,"count":84,"max":[1.2,0.4,1.2],"min":[-1.2,0.0,-1.2],"type":"VEC3","name":"accessorPositions"},{"bufferView":1,"byteOffset":2688,"componentType":5126,"count":84,"type":"VEC3","name":"accessorNormals"},{"bufferView":2,"byteOffset":1120,"componentType":5126,"count":84,"type":"VEC4","name":"accessorTangents"},{"bufferView":3,"byteOffset":560,"componentType":5126,"count":84,"type":"VEC2","name":"accessorUVs"},{"bufferView":4,"componentType":5126,"count":29,"max":[1.20833337],"min":[0.0],"type":"SCALAR","name":"accessorAnimationInput"},{"bufferView":5,"componentType":5126,"count":29,"type":"VEC3","name":"accessorAnimationPositions"}],"bufferViews":[{"buffer":0,"byteLength":540,"name":"bufferViewScalar"},{"buffer":0,"byteOffset":540,"byteLength":3696,"byteStride":12,"name":"bufferViewFloatVec3"},{"buffer":0,"byteOffset":4236,"byteLength":2464,"byteStride":16,"name":"bufferViewFloatVec4"},{"buffer":0,"byteOffset":6700,"byteLength":1232,"byteStride":8,"name":"bufferViewFloatVec2"},{"buffer":0,"byteOffset":7932,"byteLength":116,"name":"bufferViewAnimationFloatScalar"},{"buffer":0,"byteOffset":8048,"byteLength":348,"name":"bufferViewAnimationFloatVec3"}],"buffers":[{"uri":"ArrowBtn.bin","byteLength":8396}],"materials":[{"pbrMetallicRoughness":{"baseColorFactor":[0.5208334,0.08897903,0.0249999911,1.0],"metallicFactor":0.0,"roughnessFactor":0.9},"emissiveFactor":[0.0,0.0,0.0],"alphaMode":"OPAQUE","name":"lambert1"},{"pbrMetallicRoughness":{"baseColorFactor":[0.7464621,0.7464621,0.7464621,1.0],"metallicFactor":0.651132166,"roughnessFactor":0.3},"emissiveFactor":[0.0,0.0,0.0],"alphaMode":"OPAQUE","name":"blinn1"}],"animations":[{"channels":[{"sampler":0,"target":{"node":0,"path":"translation"}}],"samplers":[{"input":10,"interpolation":"LINEAR","output":11}],"name":"Press"}]}