{
    "asset": {
        "generator": "FBX2glTF",
        "version": "2.0"
    },
    "scene": 0,
    "buffers": [
        {
            "byteLength": 1394060,
            "uri": "data:application/octet-stream;base64,"
        }
    ],
    "bufferViews": [
        {
            "buffer": 0,
            "byteLength": 49152,
            "byteOffset": 0,
            "target": 34963
        },
        {
            "buffer": 0,
            "byteLength": 280812,
            "byteOffset": 49152,
            "target": 34962
        },
        {
            "buffer": 0,
            "byteLength": 280812,
            "byteOffset": 329964,
            "target": 34962
        },
        {
            "buffer": 0,
            "byteLength": 374416,
            "byteOffset": 610776,
            "target": 34962
        },
        {
            "buffer": 0,
            "byteLength": 187208,
            "byteOffset": 985192,
            "target": 34962
        },
        {
            "buffer": 0,
            "byteLength": 187208,
            "byteOffset": 1172400,
            "target": 34962
        },
        {
            "buffer": 0,
            "byteLength": 780,
            "byteOffset": 1359608,
            "target": 34963
        },
        {
            "buffer": 0,
            "byteLength": 2280,
            "byteOffset": 1360388,
            "target": 34962
        },
        {
            "buffer": 0,
            "byteLength": 2280,
            "byteOffset": 1362668,
            "target": 34962
        },
        {
            "buffer": 0,
            "byteLength": 3040,
            "byteOffset": 1364948,
            "target": 34962
        },
        {
            "buffer": 0,
            "byteLength": 3040,
            "byteOffset": 1367988,
            "target": 34962
        },
        {
            "buffer": 0,
            "byteLength": 1520,
            "byteOffset": 1371028,
            "target": 34962
        },
        {
            "buffer": 0,
            "byteLength": 1520,
            "byteOffset": 1372548,
            "target": 34962
        },
        {
            "buffer": 0,
            "byteLength": 792,
            "byteOffset": 1374068,
            "target": 34963
        },
        {
            "buffer": 0,
            "byteLength": 2448,
            "byteOffset": 1374860,
            "target": 34962
        },
        {
            "buffer": 0,
            "byteLength": 2448,
            "byteOffset": 1377308,
            "target": 34962
        },
        {
            "buffer": 0,
            "byteLength": 3264,
            "byteOffset": 1379756,
            "target": 34962
        },
        {
            "buffer": 0,
            "byteLength": 3264,
            "byteOffset": 1383020,
            "target": 34962
        },
        {
            "buffer": 0,
            "byteLength": 1632,
            "byteOffset": 1386284,
            "target": 34962
        },
        {
            "buffer": 0,
            "byteLength": 1632,
            "byteOffset": 1387916,
            "target": 34962
        },
        {
            "buffer": 0,
            "byteLength": 120,
            "byteOffset": 1389548,
            "target": 34963
        },
        {
            "buffer": 0,
            "byteLength": 432,
            "byteOffset": 1389668,
            "target": 34962
        },
        {
            "buffer": 0,
            "byteLength": 432,
            "byteOffset": 1390100,
            "target": 34962
        },
        {
            "buffer": 0,
            "byteLength": 576,
            "byteOffset": 1390532,
            "target": 34962
        },
        {
            "buffer": 0,
            "byteLength": 576,
            "byteOffset": 1391108,
            "target": 34962
        },
        {
            "buffer": 0,
            "byteLength": 288,
            "byteOffset": 1391684,
            "target": 34962
        },
        {
            "buffer": 0,
            "byteLength": 288,
            "byteOffset": 1391972,
            "target": 34962
        },
        {
            "buffer": 0,
            "byteLength": 72,
            "byteOffset": 1392260,
            "target": 34963
        },
        {
            "buffer": 0,
            "byteLength": 288,
            "byteOffset": 1392332,
            "target": 34962
        },
        {
            "buffer": 0,
            "byteLength": 288,
            "byteOffset": 1392620,
            "target": 34962
        },
        {
            "buffer": 0,
            "byteLength": 384,
            "byteOffset": 1392908,
            "target": 34962
        },
        {
            "buffer": 0,
            "byteLength": 384,
            "byteOffset": 1393292,
            "target": 34962
        },
        {
            "buffer": 0,
            "byteLength": 192,
            "byteOffset": 1393676,
            "target": 34962
        },
        {
            "buffer": 0,
            "byteLength": 192,
            "byteOffset": 1393868,
            "target": 34962
        }
    ],
    "scenes": [
        {
            "name": "Root Scene",
            "nodes": [
                0
            ]
        }
    ],
    "accessors": [
        {
            "componentType": 5123,
            "type": "SCALAR",
            "count": 24576,
            "bufferView": 0,
            "byteOffset": 0
        },
        {
            "componentType": 5126,
            "type": "VEC3",
            "count": 23401,
            "bufferView": 1,
            "byteOffset": 0,
            "min": [
                -128.0,
                0.0,
                0.0
            ],
            "max": [
                0.0,
                24.8428249359131,
                128.0
            ]
        },
        {
            "componentType": 5126,
            "type": "VEC3",
            "count": 23401,
            "bufferView": 2,
            "byteOffset": 0
        },
        {
            "componentType": 5126,
            "type": "VEC4",
            "count": 23401,
            "bufferView": 3,
            "byteOffset": 0
        },
        {
            "componentType": 5126,
            "type": "VEC2",
            "count": 23401,
            "bufferView": 4,
            "byteOffset": 0
        },
        {
            "componentType": 5126,
            "type": "VEC2",
            "count": 23401,
            "bufferView": 5,
            "byteOffset": 0
        },
        {
            "componentType": 5123,
            "type": "SCALAR",
            "count": 390,
            "bufferView": 6,
            "byteOffset": 0
        },
        {
            "componentType": 5126,
            "type": "VEC3",
            "count": 190,
            "bufferView": 7,
            "byteOffset": 0,
            "min": [
                -58.9014778137207,
                -0.257101058959961,
                -51.5723075866699
            ],
            "max": [
                13.8012275695801,
                20.4318294525146,
                17.0597076416016
            ]
        },
        {
            "componentType": 5126,
            "type": "VEC3",
            "count": 190,
            "bufferView": 8,
            "byteOffset": 0
        },
        {
            "componentType": 5126,
            "type": "VEC4",
            "count": 190,
            "bufferView": 9,
            "byteOffset": 0
        },
        {
            "componentType": 5126,
            "type": "VEC4",
            "count": 190,
            "bufferView": 10,
            "byteOffset": 0
        },
        {
            "componentType": 5126,
            "type": "VEC2",
            "count": 190,
            "bufferView": 11,
            "byteOffset": 0
        },
        {
            "componentType": 5126,
            "type": "VEC2",
            "count": 190,
            "bufferView": 12,
            "byteOffset": 0
        },
        {
            "componentType": 5123,
            "type": "SCALAR",
            "count": 396,
            "bufferView": 13,
            "byteOffset": 0
        },
        {
            "componentType": 5126,
            "type": "VEC3",
            "count": 204,
            "bufferView": 14,
            "byteOffset": 0,
            "min": [
                -70.9323501586914,
                0.0,
                -112.594497680664
            ],
            "max": [
                41.2136306762695,
                10.0,
                2.79838562011719
            ]
        },
        {
            "componentType": 5126,
            "type": "VEC3",
            "count": 204,
            "bufferView": 15,
            "byteOffset": 0
        },
        {
            "componentType": 5126,
            "type": "VEC4",
            "count": 204,
            "bufferView": 16,
            "byteOffset": 0
        },
        {
            "componentType": 5126,
            "type": "VEC4",
            "count": 204,
            "bufferView": 17,
            "byteOffset": 0
        },
        {
            "componentType": 5126,
            "type": "VEC2",
            "count": 204,
            "bufferView": 18,
            "byteOffset": 0
        },
        {
            "componentType": 5126,
            "type": "VEC2",
            "count": 204,
            "bufferView": 19,
            "byteOffset": 0
        },
        {
            "componentType": 5123,
            "type": "SCALAR",
            "count": 60,
            "bufferView": 20,
            "byteOffset": 0
        },
        {
            "componentType": 5126,
            "type": "VEC3",
            "count": 36,
            "bufferView": 21,
            "byteOffset": 0,
            "min": [
                -27.7282104492188,
                0.0,
                -10.2053203582764
            ],
            "max": [
                13.4392719268799,
                10.0,
                11.0468425750732
            ]
        },
        {
            "componentType": 5126,
            "type": "VEC3",
            "count": 36,
            "bufferView": 22,
            "byteOffset": 0
        },
        {
            "componentType": 5126,
            "type": "VEC4",
            "count": 36,
            "bufferView": 23,
            "byteOffset": 0
        },
        {
            "componentType": 5126,
            "type": "VEC4",
            "count": 36,
            "bufferView": 24,
            "byteOffset": 0
        },
        {
            "componentType": 5126,
            "type": "VEC2",
            "count": 36,
            "bufferView": 25,
            "byteOffset": 0
        },
        {
            "componentType": 5126,
            "type": "VEC2",
            "count": 36,
            "bufferView": 26,
            "byteOffset": 0
        },
        {
            "componentType": 5123,
            "type": "SCALAR",
            "count": 36,
            "bufferView": 27,
            "byteOffset": 0
        },
        {
            "componentType": 5126,
            "type": "VEC3",
            "count": 24,
            "bufferView": 28,
            "byteOffset": 0,
            "min": [
                -25.0526313781738,
                0.0,
                -5.21328353881836
            ],
            "max": [
                6.91732835769653,
                10.0,
                2.00632119178772
            ]
        },
        {
            "componentType": 5126,
            "type": "VEC3",
            "count": 24,
            "bufferView": 29,
            "byteOffset": 0
        },
        {
            "componentType": 5126,
            "type": "VEC4",
            "count": 24,
            "bufferView": 30,
            "byteOffset": 0
        },
        {
            "componentType": 5126,
            "type": "VEC4",
            "count": 24,
            "bufferView": 31,
            "byteOffset": 0
        },
        {
            "componentType": 5126,
            "type": "VEC2",
            "count": 24,
            "bufferView": 32,
            "byteOffset": 0
        },
        {
            "componentType": 5126,
            "type": "VEC2",
            "count": 24,
            "bufferView": 33,
            "byteOffset": 0
        }
    ],
    "images": [
        {
            "name": "GridBox_Default.png",
            "uri": "GridBox_Default.png"
        }
    ],
    "samplers": [
        {}
    ],
    "textures": [
        {
            "name": "DiffuseColor_Texture",
            "sampler": 0,
            "source": 0
        }
    ],
    "materials": [
        {
            "name": "PW_Woodland",
            "alphaMode": "OPAQUE",
            "extras": {
                "fromFBX": {
                    "shadingModel": "Lambert",
                    "isTruePBR": false
                }
            },
            "pbrMetallicRoughness": {
                "baseColorFactor": [
                    1.0,
                    1.0,
                    1.0,
                    1.0
                ],
                "metallicFactor": 0.200000002980232,
                "roughnessFactor": 0.800000011920929
            }
        },
        {
            "name": "Default_Prototype",
            "alphaMode": "OPAQUE",
            "extras": {
                "fromFBX": {
                    "shadingModel": "Lambert",
                    "isTruePBR": false
                }
            },
            "pbrMetallicRoughness": {
                "baseColorTexture": {
                    "index": 0,
                    "texCoord": 0
                },
                "baseColorFactor": [
                    1.0,
                    1.0,
                    1.0,
                    1.0
                ],
                "metallicFactor": 0.200000002980232,
                "roughnessFactor": 0.800000011920929
            }
        }
    ],
    "meshes": [
        {
            "name": "Terrain_0_0_20190130_171515_x0y0",
            "primitives": [
                {
                    "material": 0,
                    "mode": 4,
                    "attributes": {
                        "COLOR_0": 3,
                        "NORMAL": 2,
                        "POSITION": 1,
                        "TEXCOORD_0": 4,
                        "TEXCOORD_1": 5
                    },
                    "indices": 0
                }
            ]
        },
        {
            "name": "Mountain_collider",
            "primitives": [
                {
                    "material": 1,
                    "mode": 4,
                    "attributes": {
                        "COLOR_0": 10,
                        "NORMAL": 8,
                        "POSITION": 7,
                        "TANGENT": 9,
                        "TEXCOORD_0": 11,
                        "TEXCOORD_1": 12
                    },
                    "indices": 6
                }
            ]
        },
        {
            "name": "OuterWall_collider",
            "primitives": [
                {
                    "material": 1,
                    "mode": 4,
                    "attributes": {
                        "COLOR_0": 17,
                        "NORMAL": 15,
                        "POSITION": 14,
                        "TANGENT": 16,
                        "TEXCOORD_0": 18,
                        "TEXCOORD_1": 19
                    },
                    "indices": 13
                }
            ]
        },
        {
            "name": "InnerWall_collider",
            "primitives": [
                {
                    "material": 1,
                    "mode": 4,
                    "attributes": {
                        "COLOR_0": 24,
                        "NORMAL": 22,
                        "POSITION": 21,
                        "TANGENT": 23,
                        "TEXCOORD_0": 25,
                        "TEXCOORD_1": 26
                    },
                    "indices": 20
                }
            ]
        },
        {
            "name": "InnerBump_collider",
            "primitives": [
                {
                    "material": 1,
                    "mode": 4,
                    "attributes": {
                        "COLOR_0": 31,
                        "NORMAL": 29,
                        "POSITION": 28,
                        "TANGENT": 30,
                        "TEXCOORD_0": 32,
                        "TEXCOORD_1": 33
                    },
                    "indices": 27
                }
            ]
        }
    ],
    "nodes": [
        {
            "name": "RootNode",
            "translation": [
                0.0,
                0.0,
                0.0
            ],
            "rotation": [
                0.0,
                0.0,
                0.0,
                1.0
            ],
            "scale": [
                1.0,
                1.0,
                1.0
            ],
            "children": [
                1
            ]
        },
        {
            "name": "Terrain2",
            "translation": [
                0.0,
                0.0,
                0.0
            ],
            "rotation": [
                0.0,
                0.0,
                0.0,
                1.0
            ],
            "scale": [
                1.0,
                1.0,
                1.0
            ],
            "children": [
                2,
                3,
                4,
                5,
                6
            ]
        },
        {
            "name": "Terrain_0_0_20190130_171515_x0y0",
            "translation": [
                0.0,
                0.0,
                0.0
            ],
            "rotation": [
                0.0,
                0.0,
                0.0,
                1.0
            ],
            "scale": [
                1.0,
                1.0,
                1.0
            ],
            "mesh": 0
        },
        {
            "name": "Mountain_collider",
            "translation": [
                -71.8600006103516,
                0.0900001525878906,
                98.7699966430664
            ],
            "rotation": [
                0.0,
                -0.470728039741516,
                0.0,
                0.882278382778168
            ],
            "scale": [
                1.0,
                1.0,
                1.0
            ],
            "mesh": 1
        },
        {
            "name": "OuterWall_collider",
            "translation": [
                -49.3999977111816,
                0.0,
                115.299995422363
            ],
            "rotation": [
                0.0,
                0.0,
                0.0,
                1.0
            ],
            "scale": [
                1.0,
                1.0,
                1.0
            ],
            "mesh": 2
        },
        {
            "name": "InnerWall_collider",
            "translation": [
                -40.4000015258789,
                0.0,
                34.5
            ],
            "rotation": [
                0.0,
                -0.195800513029099,
                0.0,
                0.980643749237061
            ],
            "scale": [
                1.0,
                1.0,
                1.0
            ],
            "mesh": 3
        },
        {
            "name": "InnerBump_collider",
            "translation": [
                -18.4400005340576,
                0.0,
                66.1999969482422
            ],
            "rotation": [
                -0.0,
                -0.70710676908493,
                0.0,
                0.70710676908493
            ],
            "scale": [
                1.0,
                1.0,
                1.0
            ],
            "mesh": 4
        }
    ]
}